<svg width="484" height="483" viewBox="0 0 484 483" fill="none" xmlns="http://www.w3.org/2000/svg">
<path d="M242.18 482.36C375.38 482.36 483.36 374.38 483.36 241.18C483.36 107.98 375.38 0 242.18 0C108.98 0 1 107.98 1 241.18C1 374.38 108.98 482.36 242.18 482.36Z" fill="url(#paint0_radial_862_12461)"/>
<g style="mix-blend-mode:soft-light">
<path d="M242.18 482.36C375.38 482.36 483.36 374.38 483.36 241.18C483.36 107.98 375.38 0 242.18 0C108.98 0 1 107.98 1 241.18C1 374.38 108.98 482.36 242.18 482.36Z" fill="url(#paint1_radial_862_12461)"/>
</g>
<g style="mix-blend-mode:soft-light">
<path d="M242.18 482.36C375.38 482.36 483.36 374.38 483.36 241.18C483.36 107.98 375.38 0 242.18 0C108.98 0 1 107.98 1 241.18C1 374.38 108.98 482.36 242.18 482.36Z" fill="url(#paint2_radial_862_12461)"/>
</g>
<g style="mix-blend-mode:overlay">
<path d="M242.18 482.36C375.38 482.36 483.36 374.38 483.36 241.18C483.36 107.98 375.38 0 242.18 0C108.98 0 1 107.98 1 241.18C1 374.38 108.98 482.36 242.18 482.36Z" fill="url(#paint3_radial_862_12461)" fill-opacity="0.7"/>
</g>
<mask id="mask0_862_12461" style="mask-type:alpha" maskUnits="userSpaceOnUse" x="1" y="0" width="483" height="483">
<path d="M242.18 482.36C375.38 482.36 483.36 374.38 483.36 241.18C483.36 107.98 375.38 0 242.18 0C108.98 0 1 107.98 1 241.18C1 374.38 108.98 482.36 242.18 482.36Z" fill="white"/>
</mask>
<g mask="url(#mask0_862_12461)">
<g filter="url(#filter0_f_862_12461)">
<path d="M-0.375414 234.299C-0.113529 230.872 1.01419 230.529 1.34311 234.008C1.70854 237.874 0.998172 245.646 1.1692 250.335C1.62204 262.748 3.5249 273.541 5.48654 282.32C11.808 310.612 20.5622 328.843 28.7273 344.288C55.5668 395.06 84.9672 420.77 113.648 440.147C155.69 468.549 198.073 477.584 240.491 479.5C241.561 479.548 241.739 486.518 240.686 487.425C238.788 489.061 236.437 487.437 234.495 487.369C228.915 487.174 223.336 486.791 217.756 486.211C201.213 484.492 184.671 480.991 168.162 475.358C123.275 460.044 74.877 433.821 32.6097 359.962C29.9507 355.316 27.3128 350.424 24.7123 345.167C22.6325 340.963 20.573 336.556 18.5498 331.843C11.895 316.342 -3.61274 276.658 -0.375414 234.299ZM240.52 487.5C239.5 487.531 239.241 481.034 240.214 479.685C241.685 477.647 243.889 479.326 245.439 479.229C251.878 478.826 258.315 478.229 264.75 477.421C282.396 475.205 300.028 471.422 317.621 465.596C361.257 451.145 408.17 429.115 449.305 361.431C451.923 357.123 454.519 352.553 457.079 347.641C464.86 332.712 484.362 293.084 482.107 243.821C481.917 239.668 483.182 237.181 483.748 240.743C484.468 245.279 484.176 254.736 483.977 259.768C483.342 275.883 480.867 289.512 478.257 300.518C469.987 335.399 458.377 355.623 447.744 372.51C413.184 427.397 375.649 449.524 339.156 465.424C306.425 479.686 273.445 486.484 240.52 487.5Z" fill="#401C02"/>
</g>
<g filter="url(#filter1_f_862_12461)">
<path d="M-0.375414 234.299C-0.113529 230.872 1.01419 230.529 1.34311 234.008C1.70854 237.874 0.998172 245.646 1.1692 250.335C1.62204 262.748 3.5249 273.541 5.48654 282.32C11.808 310.612 20.5622 328.843 28.7273 344.288C55.5668 395.06 84.9672 420.77 113.648 440.147C155.69 468.549 198.073 477.584 240.491 479.5C241.561 479.548 241.739 486.518 240.686 487.425C238.788 489.061 236.437 487.437 234.495 487.369C228.915 487.174 223.336 486.791 217.756 486.211C201.213 484.492 184.671 480.991 168.162 475.358C123.275 460.044 74.877 433.821 32.6097 359.962C29.9507 355.316 27.3128 350.424 24.7123 345.167C22.6325 340.963 20.573 336.556 18.5498 331.843C11.895 316.342 -3.61274 276.658 -0.375414 234.299ZM240.52 487.5C239.5 487.531 239.241 481.034 240.214 479.685C241.685 477.647 243.889 479.326 245.439 479.229C251.878 478.826 258.315 478.229 264.75 477.421C282.396 475.205 300.028 471.422 317.621 465.596C361.257 451.145 408.17 429.115 449.305 361.431C451.923 357.123 454.519 352.553 457.079 347.641C464.86 332.712 484.362 293.084 482.107 243.821C481.917 239.668 483.182 237.181 483.748 240.743C484.468 245.279 484.176 254.736 483.977 259.768C483.342 275.883 480.867 289.512 478.257 300.518C469.987 335.399 458.377 355.623 447.744 372.51C413.184 427.397 375.649 449.524 339.156 465.424C306.425 479.686 273.445 486.484 240.52 487.5Z" fill="#401C02"/>
</g>
</g>
<path d="M210.509 231.47C209.731 231.989 208.796 232.219 207.866 232.121C206.936 232.022 206.07 231.601 205.419 230.93L204.999 230.49C204.109 229.57 203.199 228.66 202.279 227.75L199.619 225.15C198.759 224.33 197.879 223.52 196.989 222.7C196.099 221.88 195.279 221.15 194.419 220.39C193.559 219.63 192.739 218.94 191.879 218.22C191.019 217.5 190.229 216.85 189.399 216.22C188.569 215.59 187.779 214.93 186.949 214.3C186.119 213.67 185.359 213.11 184.559 212.52C183.759 211.93 183.009 211.4 182.209 210.86C181.409 210.32 180.679 209.86 179.909 209.32C179.139 208.78 178.409 208.32 177.649 207.89C176.889 207.46 176.189 207.01 175.439 206.57C174.689 206.13 174.009 205.75 173.279 205.36C172.549 204.97 171.869 204.61 171.169 204.25L169.089 203.25C168.419 202.94 167.739 202.63 167.089 202.34C166.439 202.05 165.769 201.78 165.089 201.51C164.409 201.24 163.819 201.01 163.169 200.78C162.519 200.55 161.919 200.34 161.289 200.13C160.659 199.92 160.059 199.74 159.449 199.56C158.839 199.38 158.269 199.22 157.669 199.06C157.069 198.9 156.519 198.77 155.929 198.64L154.249 198.28C153.699 198.17 153.149 198.08 152.609 197.99C152.069 197.9 151.539 197.82 151.009 197.76C150.479 197.7 150.009 197.63 149.469 197.59C148.929 197.55 148.469 197.5 147.979 197.46L146.539 197.38C146.069 197.38 145.609 197.38 145.139 197.38C144.669 197.38 144.249 197.38 143.789 197.38H142.499L141.299 197.46L140.089 197.57L138.919 197.7L138.399 197.78C132.269 198.65 129.569 196.4 128.479 193.54C126.779 189.07 129.799 184.22 134.479 183.21C170.739 175.34 197.479 204.67 211.599 225.96C212.178 226.838 212.388 227.907 212.184 228.939C211.98 229.97 211.378 230.879 210.509 231.47Z" fill="#42210B"/>
<path d="M174.548 293.96C190.548 293.96 203.518 277.157 203.518 256.43C203.518 235.703 190.548 218.9 174.548 218.9C158.548 218.9 145.578 235.703 145.578 256.43C145.578 277.157 158.548 293.96 174.548 293.96Z" fill="url(#paint4_radial_862_12461)"/>
<path d="M174.548 293.96C190.548 293.96 203.518 277.157 203.518 256.43C203.518 235.703 190.548 218.9 174.548 218.9C158.548 218.9 145.578 235.703 145.578 256.43C145.578 277.157 158.548 293.96 174.548 293.96Z" stroke="url(#paint5_linear_862_12461)" stroke-width="2.17" stroke-miterlimit="10"/>
<path d="M273.749 231.47C274.528 231.992 275.465 232.224 276.397 232.125C277.329 232.026 278.197 231.603 278.849 230.93L279.269 230.49C280.159 229.57 281.069 228.66 281.979 227.75C282.889 226.84 283.749 226.01 284.649 225.15C285.549 224.29 286.389 223.52 287.269 222.7C288.149 221.88 288.979 221.15 289.849 220.39C290.719 219.63 291.529 218.94 292.389 218.22C293.249 217.5 294.039 216.85 294.869 216.22C295.699 215.59 296.489 214.93 297.309 214.3C298.129 213.67 298.899 213.11 299.699 212.52C300.499 211.93 301.259 211.4 302.059 210.86C302.859 210.32 303.579 209.86 304.359 209.32C305.139 208.78 305.859 208.32 306.619 207.89C307.379 207.46 308.079 207.01 308.829 206.57C309.579 206.13 310.259 205.75 310.989 205.36C311.719 204.97 312.399 204.61 313.099 204.25L315.169 203.25C315.839 202.94 316.519 202.63 317.169 202.34C317.819 202.05 318.479 201.78 319.169 201.51C319.859 201.24 320.439 201.01 321.089 200.78C321.739 200.55 322.339 200.34 322.969 200.13C323.599 199.92 324.189 199.74 324.809 199.56C325.429 199.38 325.989 199.22 326.579 199.06C327.169 198.9 327.739 198.77 328.329 198.64L330.009 198.28C330.559 198.17 331.109 198.08 331.649 197.99C332.189 197.9 332.719 197.82 333.239 197.76C333.759 197.7 334.239 197.63 334.779 197.59C335.319 197.55 335.779 197.5 336.279 197.46L337.719 197.38H339.109C339.569 197.38 340.009 197.38 340.459 197.38H341.759L342.959 197.46L344.169 197.57L345.339 197.7L345.849 197.78C351.979 198.65 354.689 196.4 355.779 193.54C357.479 189.07 354.459 184.22 349.779 183.21C313.519 175.34 286.779 204.67 272.659 225.96C272.08 226.838 271.87 227.907 272.074 228.939C272.278 229.97 272.88 230.879 273.749 231.47Z" fill="#42210B"/>
<path d="M309.708 293.96C325.708 293.96 338.678 277.157 338.678 256.43C338.678 235.703 325.708 218.9 309.708 218.9C293.709 218.9 280.738 235.703 280.738 256.43C280.738 277.157 293.709 293.96 309.708 293.96Z" fill="url(#paint6_radial_862_12461)"/>
<path d="M309.708 293.96C325.708 293.96 338.678 277.157 338.678 256.43C338.678 235.703 325.708 218.9 309.708 218.9C293.709 218.9 280.738 235.703 280.738 256.43C280.738 277.157 293.709 293.96 309.708 293.96Z" stroke="url(#paint7_linear_862_12461)" stroke-width="2.17" stroke-miterlimit="10"/>
<path d="M170.743 389.14C170.361 389.437 169.895 389.607 169.412 389.626C168.928 389.645 168.451 389.512 168.047 389.247C167.642 388.981 167.331 388.596 167.156 388.144C166.982 387.693 166.953 387.199 167.073 386.73C175.363 355.8 205.463 332.88 241.333 332.88C277.203 332.88 307.333 355.82 315.603 386.77C315.726 387.24 315.698 387.737 315.524 388.191C315.349 388.645 315.036 389.032 314.63 389.298C314.223 389.565 313.743 389.696 313.257 389.675C312.772 389.654 312.305 389.481 311.923 389.18C294.083 375.82 269.043 367.5 241.333 367.5C213.623 367.5 188.603 375.82 170.743 389.14Z" fill="url(#paint8_radial_862_12461)"/>
<path d="M170.743 389.14C170.361 389.437 169.895 389.607 169.412 389.626C168.928 389.645 168.451 389.512 168.047 389.247C167.642 388.981 167.331 388.596 167.156 388.144C166.982 387.693 166.953 387.199 167.073 386.73C175.363 355.8 205.463 332.88 241.333 332.88C277.203 332.88 307.333 355.82 315.603 386.77C315.726 387.24 315.698 387.737 315.524 388.191C315.349 388.645 315.036 389.032 314.63 389.298C314.223 389.565 313.743 389.696 313.257 389.675C312.772 389.654 312.305 389.481 311.923 389.18C294.083 375.82 269.043 367.5 241.333 367.5C213.623 367.5 188.603 375.82 170.743 389.14Z" stroke="url(#paint9_linear_862_12461)" stroke-width="2" stroke-miterlimit="10"/>
<defs>
<filter id="filter0_f_862_12461" x="-25.8145" y="206.558" width="535.021" height="306.595" filterUnits="userSpaceOnUse" color-interpolation-filters="sRGB">
<feFlood flood-opacity="0" result="BackgroundImageFix"/>
<feBlend mode="normal" in="SourceGraphic" in2="BackgroundImageFix" result="shape"/>
<feGaussianBlur stdDeviation="12.5" result="effect1_foregroundBlur_862_12461"/>
</filter>
<filter id="filter1_f_862_12461" x="-40.8145" y="191.558" width="565.021" height="336.595" filterUnits="userSpaceOnUse" color-interpolation-filters="sRGB">
<feFlood flood-opacity="0" result="BackgroundImageFix"/>
<feBlend mode="normal" in="SourceGraphic" in2="BackgroundImageFix" result="shape"/>
<feGaussianBlur stdDeviation="20" result="effect1_foregroundBlur_862_12461"/>
</filter>
<radialGradient id="paint0_radial_862_12461" cx="0" cy="0" r="1" gradientUnits="userSpaceOnUse" gradientTransform="translate(242 -4.53898e-06) rotate(90) scale(482)">
<stop stop-color="#FFDE43"/>
<stop offset="1" stop-color="#FFBC00"/>
</radialGradient>
<radialGradient id="paint1_radial_862_12461" cx="0" cy="0" r="1" gradientUnits="userSpaceOnUse" gradientTransform="translate(242 64.5) rotate(90) scale(417.5)">
<stop stop-color="white" stop-opacity="0.5"/>
<stop offset="0.782278"/>
</radialGradient>
<radialGradient id="paint2_radial_862_12461" cx="0" cy="0" r="1" gradientUnits="userSpaceOnUse" gradientTransform="translate(242 64.5) rotate(90) scale(417.5)">
<stop stop-color="white" stop-opacity="0.5"/>
<stop offset="0.782278"/>
</radialGradient>
<radialGradient id="paint3_radial_862_12461" cx="0" cy="0" r="1" gradientUnits="userSpaceOnUse" gradientTransform="translate(242 -52.5) rotate(90) scale(534.5 722.835)">
<stop offset="0.0922635" stop-color="white"/>
<stop offset="0.670207" stop-color="white" stop-opacity="0"/>
</radialGradient>
<radialGradient id="paint4_radial_862_12461" cx="0" cy="0" r="1" gradientUnits="userSpaceOnUse" gradientTransform="translate(174.508 256.405) scale(36.9297 37.5951)">
<stop stop-color="#743C1C"/>
<stop offset="1" stop-color="#401C02"/>
</radialGradient>
<linearGradient id="paint5_linear_862_12461" x1="174.548" y1="296.072" x2="174.548" y2="216.485" gradientUnits="userSpaceOnUse">
<stop offset="0.265625" stop-color="#FFDE43"/>
<stop offset="1" stop-color="#F79D14"/>
</linearGradient>
<radialGradient id="paint6_radial_862_12461" cx="0" cy="0" r="1" gradientUnits="userSpaceOnUse" gradientTransform="translate(309.668 256.405) scale(36.9297 37.5951)">
<stop stop-color="#743C1C"/>
<stop offset="1" stop-color="#401C02"/>
</radialGradient>
<linearGradient id="paint7_linear_862_12461" x1="309.708" y1="296.072" x2="309.708" y2="216.485" gradientUnits="userSpaceOnUse">
<stop offset="0.265625" stop-color="#FFDE43"/>
<stop offset="1" stop-color="#F79D14"/>
</linearGradient>
<radialGradient id="paint8_radial_862_12461" cx="0" cy="0" r="1" gradientUnits="userSpaceOnUse" gradientTransform="translate(241.339 361.164) scale(56.1131 57.3686)">
<stop stop-color="#743C1C"/>
<stop offset="1" stop-color="#401C02"/>
</radialGradient>
<linearGradient id="paint9_linear_862_12461" x1="241.339" y1="391.276" x2="241.339" y2="331.052" gradientUnits="userSpaceOnUse">
<stop offset="0.265625" stop-color="#FFDE43"/>
<stop offset="1" stop-color="#F79D14"/>
</linearGradient>
</defs>
</svg>
